<svg viewBox="0 0 20 18" xmlns="http://www.w3.org/2000/svg" xmlns:xlink="http://www.w3.org/1999/xlink" width="20.000000" height="18.000000" fill="none" customFrame="#000000">
	<defs>
		<linearGradient id="paint_linear_5" x1="4.88000011" x2="12.8799973" y1="-3.19999838" y2="19.5200024" gradientUnits="userSpaceOnUse">
			<stop stop-color="rgb(213,215,217)" offset="0.113924049" stop-opacity="1" />
			<stop stop-color="rgb(152,162,179)" offset="0.991561174" stop-opacity="1" />
		</linearGradient>
		<linearGradient id="paint_linear_6" x1="4.50000095" x2="11.9999962" y1="4.76837158e-07" y2="15.9999981" gradientUnits="userSpaceOnUse">
			<stop stop-color="rgb(244,230,152)" offset="0" stop-opacity="1" />
			<stop stop-color="rgb(249.5,222.5,76)" offset="0.375527442" stop-opacity="1" />
			<stop stop-color="rgb(255,215,0)" offset="1" stop-opacity="1" />
		</linearGradient>
	</defs>
	<rect id="User Icon" width="20.000000" height="18.000000" x="0.000000" y="0.000000" />
	<path id="User Icon" d="M10 0C7.79 0 6 1.79 6 4C6 6.21 7.79 8 10 8C12.21 8 14 6.21 14 4C14 1.79 12.21 0 10 0ZM2 13C2 10.34 7.33 9 10 9C12.67 9 18 10.34 18 13L18 15C18 15.55 17.55 16 17 16L3 16C2.45 16 2 15.55 2 15L2 13Z" fill="url(#paint_linear_5)" fill-rule="evenodd" />
	<path id="User Icon" d="M10 0C7.79 0 6 1.79 6 4C6 6.21 7.79 8 10 8C12.21 8 14 6.21 14 4C14 1.79 12.21 0 10 0ZM2 13C2 10.34 7.33 9 10 9C12.67 9 18 10.34 18 13L18 15C18 15.55 17.55 16 17 16L3 16C2.45 16 2 15.55 2 15L2 13Z" fill="url(#paint_linear_6)" fill-rule="evenodd" />
</svg>
